<mxfile host="app.diagrams.net" modified="2023-11-07T06:08:31.908Z" agent="Mozilla/5.0 (Windows NT 10.0; Win64; x64) AppleWebKit/537.36 (KHTML, like Gecko) Chrome/119.0.0.0 Safari/537.36" etag="wFAySDgktd07XBzSnTIh" version="22.0.8" type="device" pages="5">
  <diagram name="Shop" id="vxcy2BIq33VlpfEJFOFF">
    <mxGraphModel dx="1434" dy="782" grid="1" gridSize="10" guides="1" tooltips="1" connect="1" arrows="1" fold="1" page="1" pageScale="1" pageWidth="850" pageHeight="1100" background="none" math="0" shadow="0">
      <root>
        <mxCell id="0" />
        <mxCell id="1" parent="0" />
        <mxCell id="X-FOuhw9uGzm_Q_BXRiE-25" value="" style="rounded=0;whiteSpace=wrap;html=1;" vertex="1" parent="1">
          <mxGeometry x="120" y="110" width="600" height="60" as="geometry" />
        </mxCell>
        <mxCell id="X-FOuhw9uGzm_Q_BXRiE-26" value="&lt;font style=&quot;font-size: 20px;&quot;&gt;&lt;b&gt;ABOUT&lt;/b&gt;&lt;/font&gt;" style="rounded=0;whiteSpace=wrap;html=1;" vertex="1" parent="1">
          <mxGeometry x="490" y="110" width="120" height="60" as="geometry" />
        </mxCell>
        <mxCell id="X-FOuhw9uGzm_Q_BXRiE-27" value="&lt;font style=&quot;font-size: 20px;&quot;&gt;&lt;b style=&quot;font-size: 20px;&quot;&gt;HOME&lt;/b&gt;&lt;/font&gt;" style="rounded=0;whiteSpace=wrap;html=1;fontSize=20;" vertex="1" parent="1">
          <mxGeometry x="250" y="110" width="120" height="60" as="geometry" />
        </mxCell>
        <mxCell id="X-FOuhw9uGzm_Q_BXRiE-28" value="&lt;b&gt;SHOP&lt;/b&gt;" style="rounded=0;whiteSpace=wrap;html=1;fontSize=20;fillColor=#f8cecc;strokeColor=#b85450;" vertex="1" parent="1">
          <mxGeometry x="370" y="110" width="120" height="60" as="geometry" />
        </mxCell>
        <mxCell id="X-FOuhw9uGzm_Q_BXRiE-29" value="&lt;b style=&quot;&quot;&gt;&lt;font style=&quot;font-size: 20px;&quot;&gt;BYO&lt;/font&gt;&lt;br&gt;&lt;/b&gt;&lt;b style=&quot;&quot;&gt;&lt;font style=&quot;font-size: 11px;&quot;&gt;(BUILD YOUR OWN)&lt;/font&gt;&lt;/b&gt;" style="rounded=0;whiteSpace=wrap;html=1;fontSize=20;" vertex="1" parent="1">
          <mxGeometry x="300" y="220" width="120" height="50" as="geometry" />
        </mxCell>
        <mxCell id="X-FOuhw9uGzm_Q_BXRiE-30" value="&lt;span style=&quot;font-size: 20px;&quot;&gt;&lt;font style=&quot;font-size: 20px;&quot;&gt;Products&lt;/font&gt;&lt;/span&gt;" style="rounded=0;whiteSpace=wrap;html=1;fontSize=20;fontStyle=1;fillColor=#f8cecc;strokeColor=#b85450;" vertex="1" parent="1">
          <mxGeometry x="435" y="220" width="120" height="50" as="geometry" />
        </mxCell>
        <mxCell id="X-FOuhw9uGzm_Q_BXRiE-31" value="LOGO" style="rounded=0;whiteSpace=wrap;html=1;" vertex="1" parent="1">
          <mxGeometry x="120" y="40" width="250" height="60" as="geometry" />
        </mxCell>
        <mxCell id="X-FOuhw9uGzm_Q_BXRiE-32" value="CART ICON" style="rounded=0;whiteSpace=wrap;html=1;" vertex="1" parent="1">
          <mxGeometry x="560" y="40" width="70" height="60" as="geometry" />
        </mxCell>
        <mxCell id="X-FOuhw9uGzm_Q_BXRiE-33" value="PROFILE ICON" style="rounded=0;whiteSpace=wrap;html=1;" vertex="1" parent="1">
          <mxGeometry x="650" y="40" width="70" height="60" as="geometry" />
        </mxCell>
        <mxCell id="X-FOuhw9uGzm_Q_BXRiE-34" value="PRODUCT IMAGE" style="rounded=0;whiteSpace=wrap;html=1;" vertex="1" parent="1">
          <mxGeometry x="120" y="420" width="150" height="140" as="geometry" />
        </mxCell>
        <mxCell id="X-FOuhw9uGzm_Q_BXRiE-35" value="PRODUCTS" style="rounded=0;whiteSpace=wrap;html=1;" vertex="1" parent="1">
          <mxGeometry x="270" y="420" width="150" height="140" as="geometry" />
        </mxCell>
        <mxCell id="X-FOuhw9uGzm_Q_BXRiE-36" value="PRODUCTS" style="rounded=0;whiteSpace=wrap;html=1;" vertex="1" parent="1">
          <mxGeometry x="120" y="600" width="150" height="140" as="geometry" />
        </mxCell>
        <mxCell id="X-FOuhw9uGzm_Q_BXRiE-37" value="PRODUCTS" style="rounded=0;whiteSpace=wrap;html=1;" vertex="1" parent="1">
          <mxGeometry x="270" y="600" width="150" height="140" as="geometry" />
        </mxCell>
        <mxCell id="X-FOuhw9uGzm_Q_BXRiE-38" value="&lt;br style=&quot;border-color: var(--border-color);&quot;&gt;PRODUCTS" style="rounded=0;whiteSpace=wrap;html=1;" vertex="1" parent="1">
          <mxGeometry x="420" y="600" width="150" height="140" as="geometry" />
        </mxCell>
        <mxCell id="X-FOuhw9uGzm_Q_BXRiE-39" value="PRODUCT IMAGE" style="rounded=0;whiteSpace=wrap;html=1;" vertex="1" parent="1">
          <mxGeometry x="270" y="420" width="150" height="140" as="geometry" />
        </mxCell>
        <mxCell id="X-FOuhw9uGzm_Q_BXRiE-40" value="PRODUCT IMAGE" style="rounded=0;whiteSpace=wrap;html=1;" vertex="1" parent="1">
          <mxGeometry x="420" y="420" width="150" height="140" as="geometry" />
        </mxCell>
        <mxCell id="X-FOuhw9uGzm_Q_BXRiE-41" value="PRODUCT IMAGE" style="rounded=0;whiteSpace=wrap;html=1;" vertex="1" parent="1">
          <mxGeometry x="570" y="420" width="150" height="140" as="geometry" />
        </mxCell>
        <mxCell id="X-FOuhw9uGzm_Q_BXRiE-42" value="PRODUCT IMAGE" style="rounded=0;whiteSpace=wrap;html=1;" vertex="1" parent="1">
          <mxGeometry x="120" y="600" width="150" height="140" as="geometry" />
        </mxCell>
        <mxCell id="X-FOuhw9uGzm_Q_BXRiE-43" value="PRODUCT IMAGE" style="rounded=0;whiteSpace=wrap;html=1;" vertex="1" parent="1">
          <mxGeometry x="270" y="600" width="150" height="140" as="geometry" />
        </mxCell>
        <mxCell id="X-FOuhw9uGzm_Q_BXRiE-44" value="PRODUCT IMAGE" style="rounded=0;whiteSpace=wrap;html=1;" vertex="1" parent="1">
          <mxGeometry x="420" y="600" width="150" height="140" as="geometry" />
        </mxCell>
        <mxCell id="X-FOuhw9uGzm_Q_BXRiE-45" value="PRODUCT IMAGE" style="rounded=0;whiteSpace=wrap;html=1;" vertex="1" parent="1">
          <mxGeometry x="570" y="600" width="150" height="140" as="geometry" />
        </mxCell>
        <mxCell id="X-FOuhw9uGzm_Q_BXRiE-46" value="FOOTER" style="rounded=0;whiteSpace=wrap;html=1;" vertex="1" parent="1">
          <mxGeometry x="120" y="760" width="600" height="60" as="geometry" />
        </mxCell>
        <mxCell id="X-FOuhw9uGzm_Q_BXRiE-47" value="" style="strokeWidth=2;html=1;shape=mxgraph.flowchart.annotation_2;align=left;labelPosition=right;pointerEvents=1;direction=south;" vertex="1" parent="1">
          <mxGeometry x="410" y="170" width="40" height="50" as="geometry" />
        </mxCell>
        <mxCell id="X-FOuhw9uGzm_Q_BXRiE-48" value="&lt;font style=&quot;font-size: 20px;&quot;&gt;H1 CONTENT&lt;/font&gt;" style="rounded=0;whiteSpace=wrap;html=1;" vertex="1" parent="1">
          <mxGeometry x="250" y="330" width="360" height="60" as="geometry" />
        </mxCell>
      </root>
    </mxGraphModel>
  </diagram>
  <diagram id="oSpiDmZiNtY45FxYGz3J" name="Build">
    <mxGraphModel dx="1434" dy="782" grid="1" gridSize="10" guides="1" tooltips="1" connect="1" arrows="1" fold="1" page="1" pageScale="1" pageWidth="850" pageHeight="1100" math="0" shadow="0">
      <root>
        <mxCell id="0" />
        <mxCell id="1" parent="0" />
        <mxCell id="_6cAoXHW8FT-sBKjxcMc-1" value="" style="rounded=0;whiteSpace=wrap;html=1;" vertex="1" parent="1">
          <mxGeometry x="100" y="90" width="600" height="60" as="geometry" />
        </mxCell>
        <mxCell id="_6cAoXHW8FT-sBKjxcMc-2" value="&lt;font style=&quot;font-size: 20px;&quot;&gt;&lt;b&gt;ABOUT&lt;/b&gt;&lt;/font&gt;" style="rounded=0;whiteSpace=wrap;html=1;" vertex="1" parent="1">
          <mxGeometry x="470" y="90" width="120" height="60" as="geometry" />
        </mxCell>
        <mxCell id="_6cAoXHW8FT-sBKjxcMc-3" value="&lt;font style=&quot;font-size: 20px;&quot;&gt;&lt;b style=&quot;font-size: 20px;&quot;&gt;HOME&lt;/b&gt;&lt;/font&gt;" style="rounded=0;whiteSpace=wrap;html=1;fontSize=20;" vertex="1" parent="1">
          <mxGeometry x="230" y="90" width="120" height="60" as="geometry" />
        </mxCell>
        <mxCell id="_6cAoXHW8FT-sBKjxcMc-4" value="&lt;b&gt;SHOP&lt;/b&gt;" style="rounded=0;whiteSpace=wrap;html=1;fontSize=20;fillColor=#f8cecc;strokeColor=#b85450;" vertex="1" parent="1">
          <mxGeometry x="350" y="90" width="120" height="60" as="geometry" />
        </mxCell>
        <mxCell id="_6cAoXHW8FT-sBKjxcMc-5" value="&lt;b style=&quot;&quot;&gt;&lt;font style=&quot;font-size: 20px;&quot;&gt;BYO&lt;/font&gt;&lt;br&gt;&lt;/b&gt;&lt;b style=&quot;&quot;&gt;&lt;font style=&quot;font-size: 11px;&quot;&gt;(BUILD YOUR OWN)&lt;/font&gt;&lt;/b&gt;" style="rounded=0;whiteSpace=wrap;html=1;fontSize=20;fillColor=#f8cecc;strokeColor=#b85450;" vertex="1" parent="1">
          <mxGeometry x="280" y="200" width="120" height="50" as="geometry" />
        </mxCell>
        <mxCell id="_6cAoXHW8FT-sBKjxcMc-6" value="&lt;span style=&quot;font-size: 20px;&quot;&gt;&lt;font style=&quot;font-size: 20px;&quot;&gt;Products&lt;/font&gt;&lt;/span&gt;" style="rounded=0;whiteSpace=wrap;html=1;fontSize=20;fontStyle=1" vertex="1" parent="1">
          <mxGeometry x="415" y="200" width="120" height="50" as="geometry" />
        </mxCell>
        <mxCell id="_6cAoXHW8FT-sBKjxcMc-7" value="LOGO" style="rounded=0;whiteSpace=wrap;html=1;" vertex="1" parent="1">
          <mxGeometry x="100" y="20" width="250" height="60" as="geometry" />
        </mxCell>
        <mxCell id="_6cAoXHW8FT-sBKjxcMc-8" value="CART ICON" style="rounded=0;whiteSpace=wrap;html=1;" vertex="1" parent="1">
          <mxGeometry x="540" y="20" width="70" height="60" as="geometry" />
        </mxCell>
        <mxCell id="_6cAoXHW8FT-sBKjxcMc-9" value="PROFILE ICON" style="rounded=0;whiteSpace=wrap;html=1;" vertex="1" parent="1">
          <mxGeometry x="630" y="20" width="70" height="60" as="geometry" />
        </mxCell>
        <mxCell id="LBL6ccyBi9vbZbaaqYHc-1" value="PRODUCT IMAGE" style="rounded=0;whiteSpace=wrap;html=1;" vertex="1" parent="1">
          <mxGeometry x="100" y="400" width="150" height="140" as="geometry" />
        </mxCell>
        <mxCell id="LBL6ccyBi9vbZbaaqYHc-2" value="PRODUCTS" style="rounded=0;whiteSpace=wrap;html=1;" vertex="1" parent="1">
          <mxGeometry x="250" y="400" width="150" height="140" as="geometry" />
        </mxCell>
        <mxCell id="LBL6ccyBi9vbZbaaqYHc-4" value="PRODUCTS" style="rounded=0;whiteSpace=wrap;html=1;" vertex="1" parent="1">
          <mxGeometry x="100" y="580" width="150" height="140" as="geometry" />
        </mxCell>
        <mxCell id="LBL6ccyBi9vbZbaaqYHc-5" value="PRODUCTS" style="rounded=0;whiteSpace=wrap;html=1;" vertex="1" parent="1">
          <mxGeometry x="250" y="580" width="150" height="140" as="geometry" />
        </mxCell>
        <mxCell id="LBL6ccyBi9vbZbaaqYHc-6" value="&lt;br style=&quot;border-color: var(--border-color);&quot;&gt;PRODUCTS" style="rounded=0;whiteSpace=wrap;html=1;" vertex="1" parent="1">
          <mxGeometry x="400" y="580" width="150" height="140" as="geometry" />
        </mxCell>
        <mxCell id="LBL6ccyBi9vbZbaaqYHc-8" value="PRODUCT IMAGE" style="rounded=0;whiteSpace=wrap;html=1;" vertex="1" parent="1">
          <mxGeometry x="250" y="400" width="150" height="140" as="geometry" />
        </mxCell>
        <mxCell id="LBL6ccyBi9vbZbaaqYHc-9" value="PRODUCT IMAGE" style="rounded=0;whiteSpace=wrap;html=1;" vertex="1" parent="1">
          <mxGeometry x="400" y="400" width="150" height="140" as="geometry" />
        </mxCell>
        <mxCell id="LBL6ccyBi9vbZbaaqYHc-10" value="PRODUCT IMAGE" style="rounded=0;whiteSpace=wrap;html=1;" vertex="1" parent="1">
          <mxGeometry x="550" y="400" width="150" height="140" as="geometry" />
        </mxCell>
        <mxCell id="LBL6ccyBi9vbZbaaqYHc-11" value="PRODUCT IMAGE" style="rounded=0;whiteSpace=wrap;html=1;" vertex="1" parent="1">
          <mxGeometry x="100" y="580" width="150" height="140" as="geometry" />
        </mxCell>
        <mxCell id="LBL6ccyBi9vbZbaaqYHc-12" value="PRODUCT IMAGE" style="rounded=0;whiteSpace=wrap;html=1;" vertex="1" parent="1">
          <mxGeometry x="250" y="580" width="150" height="140" as="geometry" />
        </mxCell>
        <mxCell id="LBL6ccyBi9vbZbaaqYHc-13" value="PRODUCT IMAGE" style="rounded=0;whiteSpace=wrap;html=1;" vertex="1" parent="1">
          <mxGeometry x="400" y="580" width="150" height="140" as="geometry" />
        </mxCell>
        <mxCell id="LBL6ccyBi9vbZbaaqYHc-14" value="PRODUCT IMAGE" style="rounded=0;whiteSpace=wrap;html=1;" vertex="1" parent="1">
          <mxGeometry x="550" y="580" width="150" height="140" as="geometry" />
        </mxCell>
        <mxCell id="LBL6ccyBi9vbZbaaqYHc-15" value="FOOTER" style="rounded=0;whiteSpace=wrap;html=1;" vertex="1" parent="1">
          <mxGeometry x="100" y="740" width="600" height="60" as="geometry" />
        </mxCell>
        <mxCell id="NU-IAzHuCpDvXuQ85jSa-2" value="" style="strokeWidth=2;html=1;shape=mxgraph.flowchart.annotation_2;align=left;labelPosition=right;pointerEvents=1;direction=south;" vertex="1" parent="1">
          <mxGeometry x="390" y="150" width="40" height="50" as="geometry" />
        </mxCell>
        <mxCell id="NU-IAzHuCpDvXuQ85jSa-3" value="&lt;font style=&quot;font-size: 20px;&quot;&gt;H1 CONTENT&lt;/font&gt;" style="rounded=0;whiteSpace=wrap;html=1;" vertex="1" parent="1">
          <mxGeometry x="230" y="310" width="360" height="60" as="geometry" />
        </mxCell>
      </root>
    </mxGraphModel>
  </diagram>
  <diagram id="RqO8nfqIlDxY8QEJrmLk" name="Home">
    <mxGraphModel dx="1434" dy="782" grid="1" gridSize="10" guides="1" tooltips="1" connect="1" arrows="1" fold="1" page="1" pageScale="1" pageWidth="850" pageHeight="1100" math="0" shadow="0">
      <root>
        <mxCell id="0" />
        <mxCell id="1" parent="0" />
        <mxCell id="A9lWdijx3xXT8quSPNkZ-2" value="&#xa;&lt;span style=&quot;color: rgb(0, 0, 0); font-family: Helvetica; font-size: 12px; font-style: normal; font-variant-ligatures: normal; font-variant-caps: normal; font-weight: 400; letter-spacing: normal; orphans: 2; text-align: center; text-indent: 0px; text-transform: none; widows: 2; word-spacing: 0px; -webkit-text-stroke-width: 0px; background-color: rgb(251, 251, 251); text-decoration-thickness: initial; text-decoration-style: initial; text-decoration-color: initial; float: none; display: inline !important;&quot;&gt;BACKGROUND IMAGE&lt;/span&gt;&#xa;&#xa;" style="rounded=0;whiteSpace=wrap;html=1;fillColor=#f8cecc;strokeColor=#b85450;" vertex="1" parent="1">
          <mxGeometry width="850" height="780" as="geometry" />
        </mxCell>
        <mxCell id="Ld-eCDjT-hB4DwJooAZA-1" value="&lt;span style=&quot;font-size: 20px;&quot;&gt;&lt;b&gt;LOGIN&lt;/b&gt;&lt;/span&gt;" style="rounded=0;whiteSpace=wrap;html=1;" vertex="1" parent="1">
          <mxGeometry x="470" y="530" width="120" height="60" as="geometry" />
        </mxCell>
        <mxCell id="Ld-eCDjT-hB4DwJooAZA-2" value="&lt;span style=&quot;font-size: 20px;&quot;&gt;&lt;font style=&quot;font-size: 20px;&quot;&gt;REGISTER&lt;/font&gt;&lt;/span&gt;" style="rounded=0;whiteSpace=wrap;html=1;fontSize=20;fontStyle=1" vertex="1" parent="1">
          <mxGeometry x="220" y="530" width="120" height="60" as="geometry" />
        </mxCell>
        <mxCell id="Ld-eCDjT-hB4DwJooAZA-3" value="&lt;font style=&quot;font-size: 20px;&quot;&gt;MAIN CONTENT&lt;/font&gt;" style="rounded=0;whiteSpace=wrap;html=1;" vertex="1" parent="1">
          <mxGeometry x="150" y="180" width="500" height="240" as="geometry" />
        </mxCell>
        <mxCell id="QtOE3aRrsU7pjxRF4BQI-1" value="LOGO" style="rounded=0;whiteSpace=wrap;html=1;" vertex="1" parent="1">
          <mxGeometry x="340" y="40" width="120" height="60" as="geometry" />
        </mxCell>
        <mxCell id="A9lWdijx3xXT8quSPNkZ-1" value="FOOTER" style="rounded=0;whiteSpace=wrap;html=1;" vertex="1" parent="1">
          <mxGeometry x="40" y="720" width="760" height="60" as="geometry" />
        </mxCell>
      </root>
    </mxGraphModel>
  </diagram>
  <diagram id="9ZLmgaEFnSwrGQji-E4T" name="About">
    <mxGraphModel dx="1434" dy="782" grid="1" gridSize="10" guides="1" tooltips="1" connect="1" arrows="1" fold="1" page="1" pageScale="1" pageWidth="850" pageHeight="1100" math="0" shadow="0">
      <root>
        <mxCell id="0" />
        <mxCell id="1" parent="0" />
        <mxCell id="K21dX0A_wn9WkgJKMOyi-1" value="&lt;font style=&quot;font-size: 24px;&quot;&gt;&lt;b&gt;ABOUT US&lt;/b&gt;&lt;/font&gt;" style="rounded=0;whiteSpace=wrap;html=1;" vertex="1" parent="1">
          <mxGeometry x="160" y="320" width="525" height="90" as="geometry" />
        </mxCell>
        <mxCell id="oXgRALowgz2y85NxgUlw-10" value="&lt;font style=&quot;font-size: 14px;&quot;&gt;MAIN CONTENT&lt;/font&gt;" style="rounded=0;whiteSpace=wrap;html=1;" vertex="1" parent="1">
          <mxGeometry x="162.5" y="540" width="520" height="280" as="geometry" />
        </mxCell>
        <mxCell id="UjetEffkkD9ykS4twWvU-1" value="FOOTER" style="rounded=0;whiteSpace=wrap;html=1;" vertex="1" parent="1">
          <mxGeometry x="122.5" y="840" width="600" height="60" as="geometry" />
        </mxCell>
        <mxCell id="zFIxHmkHfY1RIXSbTV05-1" value="" style="rounded=0;whiteSpace=wrap;html=1;" vertex="1" parent="1">
          <mxGeometry x="122.5" y="90" width="600" height="60" as="geometry" />
        </mxCell>
        <mxCell id="zFIxHmkHfY1RIXSbTV05-2" value="&lt;font style=&quot;font-size: 20px;&quot;&gt;&lt;b&gt;ABOUT&lt;/b&gt;&lt;/font&gt;" style="rounded=0;whiteSpace=wrap;html=1;" vertex="1" parent="1">
          <mxGeometry x="492.5" y="90" width="120" height="60" as="geometry" />
        </mxCell>
        <mxCell id="zFIxHmkHfY1RIXSbTV05-3" value="&lt;font style=&quot;font-size: 20px;&quot;&gt;&lt;b style=&quot;font-size: 20px;&quot;&gt;HOME&lt;/b&gt;&lt;/font&gt;" style="rounded=0;whiteSpace=wrap;html=1;fontSize=20;" vertex="1" parent="1">
          <mxGeometry x="252.5" y="90" width="120" height="60" as="geometry" />
        </mxCell>
        <mxCell id="zFIxHmkHfY1RIXSbTV05-4" value="&lt;b&gt;SHOP&lt;/b&gt;" style="rounded=0;whiteSpace=wrap;html=1;fontSize=20;fillColor=#f8cecc;strokeColor=#b85450;" vertex="1" parent="1">
          <mxGeometry x="372.5" y="90" width="120" height="60" as="geometry" />
        </mxCell>
        <mxCell id="zFIxHmkHfY1RIXSbTV05-5" value="&lt;b style=&quot;&quot;&gt;&lt;font style=&quot;font-size: 20px;&quot;&gt;BYO&lt;/font&gt;&lt;br&gt;&lt;/b&gt;&lt;b style=&quot;&quot;&gt;&lt;font style=&quot;font-size: 11px;&quot;&gt;(BUILD YOUR OWN)&lt;/font&gt;&lt;/b&gt;" style="rounded=0;whiteSpace=wrap;html=1;fontSize=20;fillColor=#f8cecc;strokeColor=#b85450;" vertex="1" parent="1">
          <mxGeometry x="302.5" y="200" width="120" height="50" as="geometry" />
        </mxCell>
        <mxCell id="zFIxHmkHfY1RIXSbTV05-6" value="&lt;span style=&quot;font-size: 20px;&quot;&gt;&lt;font style=&quot;font-size: 20px;&quot;&gt;Products&lt;/font&gt;&lt;/span&gt;" style="rounded=0;whiteSpace=wrap;html=1;fontSize=20;fontStyle=1" vertex="1" parent="1">
          <mxGeometry x="437.5" y="200" width="120" height="50" as="geometry" />
        </mxCell>
        <mxCell id="zFIxHmkHfY1RIXSbTV05-7" value="LOGO" style="rounded=0;whiteSpace=wrap;html=1;" vertex="1" parent="1">
          <mxGeometry x="122.5" y="20" width="250" height="60" as="geometry" />
        </mxCell>
        <mxCell id="zFIxHmkHfY1RIXSbTV05-8" value="CART ICON" style="rounded=0;whiteSpace=wrap;html=1;" vertex="1" parent="1">
          <mxGeometry x="562.5" y="20" width="70" height="60" as="geometry" />
        </mxCell>
        <mxCell id="zFIxHmkHfY1RIXSbTV05-9" value="PROFILE ICON" style="rounded=0;whiteSpace=wrap;html=1;" vertex="1" parent="1">
          <mxGeometry x="652.5" y="20" width="70" height="60" as="geometry" />
        </mxCell>
        <mxCell id="zFIxHmkHfY1RIXSbTV05-10" value="" style="strokeWidth=2;html=1;shape=mxgraph.flowchart.annotation_2;align=left;labelPosition=right;pointerEvents=1;direction=south;" vertex="1" parent="1">
          <mxGeometry x="412.5" y="150" width="40" height="50" as="geometry" />
        </mxCell>
      </root>
    </mxGraphModel>
  </diagram>
  <diagram id="TG6_P2UGC2LKaVOIrajV" name="Page-5">
    <mxGraphModel dx="1434" dy="782" grid="1" gridSize="10" guides="1" tooltips="1" connect="1" arrows="1" fold="1" page="1" pageScale="1" pageWidth="700" pageHeight="1000" math="0" shadow="0">
      <root>
        <mxCell id="0" />
        <mxCell id="1" parent="0" />
        <mxCell id="UZBeRYVpzTJ0JHrnZrkp-1" value="&lt;span style=&quot;font-size: 17px;&quot;&gt;&lt;b&gt;HOME&lt;br&gt;index.html&lt;br&gt;&lt;/b&gt;&lt;/span&gt;" style="rounded=0;whiteSpace=wrap;html=1;" vertex="1" parent="1">
          <mxGeometry x="740" y="68.51" width="280" height="60" as="geometry" />
        </mxCell>
        <mxCell id="UZBeRYVpzTJ0JHrnZrkp-2" value="" style="strokeWidth=2;html=1;shape=mxgraph.flowchart.annotation_2;align=left;labelPosition=right;pointerEvents=1;rotation=-90;direction=west;" vertex="1" parent="1">
          <mxGeometry x="854.69" y="-371.48" width="55" height="1055" as="geometry" />
        </mxCell>
        <mxCell id="GXgVzmjuc7qrWFdJMjut-1" value="&lt;span style=&quot;font-size: 17px;&quot;&gt;&lt;b&gt;SHOP&lt;br&gt;&lt;/b&gt;&lt;/span&gt;" style="rounded=0;whiteSpace=wrap;html=1;" vertex="1" parent="1">
          <mxGeometry x="290" y="178.51" width="140" height="60" as="geometry" />
        </mxCell>
        <mxCell id="GXgVzmjuc7qrWFdJMjut-2" value="&lt;span style=&quot;font-size: 17px;&quot;&gt;&lt;b&gt;ABOUT&lt;br&gt;about.html&lt;br&gt;&lt;/b&gt;&lt;/span&gt;" style="rounded=0;whiteSpace=wrap;html=1;" vertex="1" parent="1">
          <mxGeometry x="1110" y="178.51" width="140" height="60" as="geometry" />
        </mxCell>
        <mxCell id="GXgVzmjuc7qrWFdJMjut-3" value="" style="strokeWidth=2;html=1;shape=mxgraph.flowchart.annotation_2;align=left;labelPosition=right;pointerEvents=1;direction=south;" vertex="1" parent="1">
          <mxGeometry x="310" y="238.51" width="100" height="50" as="geometry" />
        </mxCell>
        <mxCell id="GXgVzmjuc7qrWFdJMjut-4" value="&lt;span style=&quot;font-size: 17px;&quot;&gt;&lt;b&gt;BYO&lt;br&gt;byo.html&lt;br&gt;&lt;/b&gt;&lt;/span&gt;" style="rounded=0;whiteSpace=wrap;html=1;" vertex="1" parent="1">
          <mxGeometry x="230" y="288.51" width="130" height="60" as="geometry" />
        </mxCell>
        <mxCell id="GXgVzmjuc7qrWFdJMjut-6" value="&lt;span style=&quot;font-size: 17px;&quot;&gt;&lt;b&gt;PRODUCTS&lt;br&gt;products.html&lt;br&gt;&lt;/b&gt;&lt;/span&gt;" style="rounded=0;whiteSpace=wrap;html=1;" vertex="1" parent="1">
          <mxGeometry x="365" y="288.51" width="130" height="60" as="geometry" />
        </mxCell>
        <mxCell id="ywMzQlgRJ1-Mrk2pFXfG-1" value="&lt;span style=&quot;font-size: 17px;&quot;&gt;&lt;b&gt;CART&lt;br&gt;&lt;/b&gt;&lt;/span&gt;" style="rounded=0;whiteSpace=wrap;html=1;" vertex="1" parent="1">
          <mxGeometry x="908.2" y="178.51" width="140" height="60" as="geometry" />
        </mxCell>
        <mxCell id="ywMzQlgRJ1-Mrk2pFXfG-2" value="" style="strokeWidth=2;html=1;shape=mxgraph.flowchart.annotation_2;align=left;labelPosition=right;pointerEvents=1;direction=south;" vertex="1" parent="1">
          <mxGeometry x="780" y="158.51" width="200" height="20" as="geometry" />
        </mxCell>
        <mxCell id="ywMzQlgRJ1-Mrk2pFXfG-3" value="&lt;span style=&quot;font-size: 17px;&quot;&gt;&lt;b&gt;CONTACT&lt;br&gt;&lt;/b&gt;&lt;/span&gt;" style="rounded=0;whiteSpace=wrap;html=1;" vertex="1" parent="1">
          <mxGeometry x="725" y="178.51" width="140" height="60" as="geometry" />
        </mxCell>
        <mxCell id="ywMzQlgRJ1-Mrk2pFXfG-5" value="&lt;span style=&quot;font-size: 17px;&quot;&gt;&lt;b&gt;SHOP&lt;br&gt;&lt;/b&gt;&lt;/span&gt;" style="rounded=0;whiteSpace=wrap;html=1;" vertex="1" parent="1">
          <mxGeometry x="460" y="488.51" width="140" height="60" as="geometry" />
        </mxCell>
        <mxCell id="ywMzQlgRJ1-Mrk2pFXfG-6" value="&lt;span style=&quot;font-size: 17px;&quot;&gt;&lt;b&gt;ABOUT&lt;br&gt;about.html&lt;br&gt;&lt;/b&gt;&lt;/span&gt;" style="rounded=0;whiteSpace=wrap;html=1;" vertex="1" parent="1">
          <mxGeometry x="1050" y="488.51" width="140" height="60" as="geometry" />
        </mxCell>
        <mxCell id="ywMzQlgRJ1-Mrk2pFXfG-7" value="&lt;span style=&quot;font-size: 17px;&quot;&gt;&lt;b&gt;CART&lt;br&gt;&lt;/b&gt;&lt;/span&gt;" style="rounded=0;whiteSpace=wrap;html=1;" vertex="1" parent="1">
          <mxGeometry x="848.2" y="488.51" width="140" height="60" as="geometry" />
        </mxCell>
        <mxCell id="ywMzQlgRJ1-Mrk2pFXfG-8" value="" style="strokeWidth=2;html=1;shape=mxgraph.flowchart.annotation_2;align=left;labelPosition=right;pointerEvents=1;direction=south;" vertex="1" parent="1">
          <mxGeometry x="788.2" y="210" width="200" height="240" as="geometry" />
        </mxCell>
        <mxCell id="ywMzQlgRJ1-Mrk2pFXfG-9" value="&lt;span style=&quot;font-size: 17px;&quot;&gt;&lt;b&gt;CONTACT&lt;br&gt;&lt;/b&gt;&lt;/span&gt;" style="rounded=0;whiteSpace=wrap;html=1;" vertex="1" parent="1">
          <mxGeometry x="665" y="488.51" width="140" height="60" as="geometry" />
        </mxCell>
      </root>
    </mxGraphModel>
  </diagram>
</mxfile>
